<?xml version="1.0" encoding="UTF-8" standalone="no"?>
<!-- Created with Inkscape (http://www.inkscape.org/) -->

<svg
   version="1.1"
   id="svg1"
   width="153.42188"
   height="48.530212"
   viewBox="0 0 153.42188 48.530212"
   xmlns="http://www.w3.org/2000/svg"
   xmlns:svg="http://www.w3.org/2000/svg">
  <defs
     id="defs1" />
  <g
     id="g1"
     transform="translate(-221.72533,-284.08936)">
    <path
       d="M 468.44833,769.93888 C 0,0 0,0 468.44833,769.93888 Z"
       style="fill:#808080"
       id="path1-2" />
    <g
       id="g3">
      <text
         xml:space="preserve"
         style="font-style:normal;font-variant:normal;font-weight:normal;font-stretch:normal;font-size:24px;font-family:'Segoe UI';-inkscape-font-specification:'Segoe UI, Normal';font-variant-ligatures:normal;font-variant-caps:normal;font-variant-numeric:normal;font-variant-east-asian:normal;text-align:center;writing-mode:lr-tb;direction:ltr;text-anchor:middle;fill:#000000;stroke:none;stroke-width:1.08;stroke-linejoin:round;stroke-dasharray:none;paint-order:stroke fill markers"
         x="297.15308"
         y="302.11279"
         id="text1-1"><tspan
           id="tspan1-5"
           x="297.15308"
           y="302.11279"><tspan
   style="font-style:normal;font-variant:normal;font-weight:normal;font-stretch:normal;font-size:24px;font-family:'Segoe UI';-inkscape-font-specification:'Segoe UI, Normal';font-variant-ligatures:normal;font-variant-caps:normal;font-variant-numeric:normal;font-variant-east-asian:normal;fill:#000000;stroke:none;stroke-width:1.08;stroke-dasharray:none"
   id="tspan2-2">Department</tspan> of</tspan></text>
      <path
         d="m 333.89955,332.03686 c 1.15655,-0.90973 1.88143,-2.57904 4.65517,-10.72022 2.19794,-6.45108 2.64385,-7.51022 3.45208,-8.19911 0.51049,-0.43509 0.79739,-0.81006 0.63762,-0.83321 -1.05198,-0.15258 -3.9203,-0.0801 -3.92103,0.0991 0,0.11983 0.2626,0.48132 0.58459,0.80332 0.68596,0.68599 0.67292,0.76848 -0.87205,5.51528 -1.06365,3.26798 -1.09511,3.32185 -1.44218,2.46934 -0.67195,-1.6505 -2.04029,-7.2636 -1.88788,-7.74431 0.0839,-0.26486 0.35206,-0.55808 0.59578,-0.65161 0.97701,-0.37491 0.0422,-0.61095 -2.25422,-0.56917 -1.33289,0.0241 -2.53151,0.0576 -2.66361,0.0743 -0.13209,0.0165 0.14761,0.35651 0.62152,0.7553 0.92739,0.78033 2.53633,4.78485 3.99557,9.94461 0.74013,2.61706 0.74669,2.715 0.27642,4.13088 -0.26495,0.79763 -0.85843,1.85355 -1.31889,2.34646 -0.73032,0.78183 -0.96775,0.87171 -1.86009,0.70432 -0.90804,-0.17036 -1.06161,-0.107 -1.36737,0.56405 -0.28984,0.63616 -0.26094,0.84821 0.18248,1.33815 0.67845,0.74972 1.61067,0.73982 2.58609,-0.0276 z m -36.206,-3.6704 c 1.93665,-2.46097 2.68158,-4.93098 2.68158,-8.8914 0,-3.22016 -0.63485,-5.63169 -1.75218,-6.65586 -1.28392,-1.17685 -2.39818,-1.01736 -4.12208,0.59001 -0.69877,0.65155 -0.81218,0.67993 -0.97907,0.24504 -0.10376,-0.27052 -0.11708,-2.51368 -0.0295,-4.98481 0.0969,-2.73356 0.0519,-4.49293 -0.11474,-4.49293 -0.1507,0 -0.99914,0.40924 -1.88544,0.90945 l -1.61144,0.90944 0.74432,0.77688 0.7443,0.77689 v 8.54325 l -0.79891,9.19739 -0.7989,0.65412 2.68722,0.0105 c 1.60478,0.006 2.68722,-0.1066 2.68722,-0.28009 0,-0.15978 -0.13072,-0.29051 -0.2905,-0.29051 -0.15978,0 -0.55197,-0.26146 -0.87153,-0.58102 -0.52729,-0.52727 -0.58102,-0.96836 -0.58102,-4.76966 0,-2.30375 0.0812,-4.40028 0.18045,-4.65892 0.24555,-0.63988 1.76272,-1.38815 2.40271,-1.18502 1.16778,0.37063 1.75725,1.4418 2.08324,3.78552 0.53427,3.84125 -0.1673,8.41511 -1.63678,10.67113 -0.38805,0.59575 -0.70554,1.15594 -0.70554,1.24489 0,0.39031 1.17914,-0.52358 1.96659,-1.52424 z m -23.34508,-1.67537 c 0.19359,-0.77136 0.36833,-0.81601 2.85844,-0.73055 1.32735,0.0456 1.89771,-0.39628 0.97075,-0.75201 -1.03519,-0.39722 -1.13698,-1.62887 -0.94389,-11.41983 0.10324,-5.23526 0.11672,-9.58964 0.0299,-9.67645 -0.0868,-0.0868 -0.94686,0.31058 -1.91131,0.88301 l -1.75353,1.04081 0.75092,0.54701 0.75093,0.547 v 8.3869 c 0,8.7206 -0.11745,9.68051 -1.22756,10.03284 -0.93727,0.29748 -2.29172,-0.48864 -3.13624,-1.82029 -0.43981,-0.69353 -2.0237,-4.9989 -3.51975,-9.56753 l -2.72009,-8.30657 -2.81555,0.16112 c -1.69643,0.0971 -3.16673,0.34271 -3.69909,0.618 -1.67558,0.86649 -2.32142,3.37669 -1.16604,4.53208 0.67814,0.67814 1.37136,0.65026 1.82712,-0.0735 0.23482,-0.3729 0.18978,-0.62358 -0.18675,-1.03966 -1.15712,-1.27862 -0.13592,-2.97186 1.79233,-2.97186 0.61956,0 1.26427,0.16603 1.43269,0.36898 0.22294,0.2686 -0.34705,2.3032 -2.09571,7.48064 -0.98042,3.5639 -1.62212,5.92292 -3.22076,8.70457 -0.24648,0.47662 -0.83812,1.06828 -1.31476,1.31474 -0.47664,0.2465 -0.86661,0.56078 -0.86661,0.69845 0,0.13767 1.3073,0.24568 2.9051,0.24008 1.59782,-0.005 2.90511,-0.11827 2.90511,-0.25031 0,-0.13203 -0.39219,-0.44288 -0.87152,-0.69075 -0.7306,-0.3778 -0.87201,-0.62567 -0.87438,-1.53264 -10e-4,-0.59509 0.35441,-2.09148 0.79105,-3.32534 0.7919,-2.23774 0.79688,-2.24381 1.99265,-2.42311 1.59984,-0.23994 4.24098,0.0643 4.52323,0.52097 0.12458,0.20156 0.65638,1.65306 1.18176,3.22554 l 0.95526,2.85903 -0.79867,0.68697 c -0.43925,0.37783 -0.79866,0.74304 -0.79866,0.81151 0,0.0685 1.21285,0.17759 2.69521,0.24243 2.04227,0.0893 2.9748,0.26896 3.84927,0.74148 1.47783,0.79854 1.49283,0.79799 1.70912,-0.0638 z m -13.5181,-10.23644 c -0.41245,-0.0918 -0.35434,-0.47681 0.46693,-3.09289 1.44933,-4.61661 1.38228,-4.59977 2.62342,-0.65902 0.59197,1.87955 1.02598,3.46768 0.96448,3.52918 -0.16283,0.16283 -3.5006,0.34617 -4.05483,0.22273 z m 26.41363,8.51513 c 1.3583,-1.28336 1.56072,-2.09452 0.3028,-1.21343 -2.35347,1.64845 -4.95169,-1.1933 -4.96724,-5.43287 -0.0137,-3.73826 1.34405,-5.46108 3.49541,-4.43516 0.52502,0.25036 1.0299,0.6515 1.12196,0.8914 0.092,0.2399 0.33551,0.4362 0.54099,0.4362 0.45531,0 0.72627,-0.64604 0.72627,-1.73159 0,-1.7091 -3.21536,-1.94761 -5.19086,-0.38504 -0.58031,0.459 -1.44731,1.61326 -1.92665,2.56501 -0.75803,1.5051 -0.86956,2.0331 -0.85637,4.05453 0.0176,2.69216 0.60731,4.13196 2.30192,5.61985 1.55575,1.36595 2.71753,1.26967 4.45177,-0.3689 z m 22.36562,0.19612 c 1.18601,-1.12459 2.01914,-2.3967 1.56965,-2.3967 -0.14064,0 -0.48562,0.25404 -0.76662,0.56454 -0.76876,0.84949 -2.02377,1.02126 -3.04665,0.41703 -0.98627,-0.58262 -2.23425,-2.7027 -1.98038,-3.36429 0.0927,-0.24141 1.49128,-1.25651 3.10809,-2.25575 3.20037,-1.97795 3.1287,-1.84265 2.12538,-4.01213 -1.33448,-2.88556 -4.31117,-2.71723 -6.30419,0.35646 -1.07306,1.65492 -1.40826,3.16734 -1.26302,5.69895 0.14825,2.58423 0.98493,4.38058 2.52277,5.41642 1.48567,1.0007 2.66248,0.87687 4.03497,-0.42453 z m -4.41275,-6.38713 c -0.33028,-0.33029 -0.17193,-3.00443 0.23568,-3.97996 0.54157,-1.29618 1.45891,-1.58262 2.35931,-0.73677 0.92286,0.867 1.35621,2.14162 0.91211,2.68278 -0.50027,0.60964 -3.30488,2.23618 -3.5071,2.03395 z m 23.57476,6.99796 c 1.24809,-0.47667 1.25079,-0.48084 0.66338,-1.02812 -0.54383,-0.50664 -0.59034,-0.90543 -0.59621,-5.11373 -0.005,-3.8489 -0.0925,-4.75406 -0.55633,-5.77544 -0.96711,-2.13003 -2.40793,-2.39076 -4.47777,-0.81033 l -1.3474,1.02882 -0.90331,-1.02882 c -1.15366,-1.31394 -2.18909,-1.3597 -3.55859,-0.15727 -0.54593,0.47933 -1.13877,0.87153 -1.3174,0.87153 -0.17864,0 -0.32478,-0.3922 -0.32478,-0.87153 0,-0.47935 -0.0885,-0.87154 -0.19663,-0.87154 -0.28977,0 -3.28951,2.10056 -3.28951,2.30349 0,0.0954 0.29414,0.30237 0.65365,0.46011 0.63035,0.27654 0.65662,0.44216 0.73693,4.64443 0.0941,4.92517 0.007,5.5511 -0.81022,5.81041 -1.25527,0.39841 -0.46835,0.72607 1.74373,0.72607 1.27825,0 2.32408,-0.11048 2.32408,-0.24549 0,-0.13502 -0.26145,-0.4821 -0.58101,-0.7713 -0.53308,-0.48242 -0.58102,-0.89477 -0.58102,-4.99692 0,-4.35973 0.0178,-4.48886 0.71307,-5.18417 0.93634,-0.93634 1.99001,-0.91626 2.75197,0.0523 0.54998,0.6992 0.6021,1.15309 0.6021,5.24308 0,4.46884 -0.001,4.479 -0.7687,5.19 l -0.7687,0.71242 2.72965,-0.009 2.72965,-0.009 -0.72628,-0.60323 c -0.70299,-0.58386 -0.73157,-0.74887 -0.89129,-5.14689 -0.0908,-2.49903 -0.0682,-4.74496 0.0502,-4.99097 0.32712,-0.68005 1.58579,-1.24559 2.34395,-1.05318 1.24312,0.31552 1.41925,1.05676 1.44644,6.08701 0.0238,4.40466 0.22153,6.01708 0.73787,6.01708 0.11844,0 0.77929,-0.21535 1.46854,-0.47859 z"
         style="fill:#000000;stroke-width:0.29051"
         id="path3" />
    </g>
  </g>
</svg>
